<?xml version="1.0" encoding="UTF-8" standalone="no"?>
<!-- Created with Inkscape (http://www.inkscape.org/) -->

<svg
   xmlns:dc="http://purl.org/dc/elements/1.1/"
   xmlns:cc="http://creativecommons.org/ns#"
   xmlns:rdf="http://www.w3.org/1999/02/22-rdf-syntax-ns#"
   xmlns:svg="http://www.w3.org/2000/svg"
   xmlns="http://www.w3.org/2000/svg"
   xmlns:sodipodi="http://sodipodi.sourceforge.net/DTD/sodipodi-0.dtd"
   xmlns:inkscape="http://www.inkscape.org/namespaces/inkscape"
   width="113.36787"
   height="432.27411"
   id="svg2"
   version="1.1"
   inkscape:version="0.48.5 r10040"
   sodipodi:docname="door_opener_x.svg">
  <defs
     id="defs4">
    <inkscape:path-effect
       effect="spiro"
       id="path-effect4151"
       is_visible="true" />
  </defs>
  <sodipodi:namedview
     id="base"
     pagecolor="#ffffff"
     bordercolor="#666666"
     borderopacity="1.0"
     inkscape:pageopacity="0.0"
     inkscape:pageshadow="2"
     inkscape:zoom="1.7928439"
     inkscape:cx="139.56587"
     inkscape:cy="216.83291"
     inkscape:document-units="mm"
     inkscape:current-layer="layer2"
     showgrid="false"
     fit-margin-top="1"
     fit-margin-left="1"
     fit-margin-right="1"
     fit-margin-bottom="1"
     inkscape:window-width="1920"
     inkscape:window-height="981"
     inkscape:window-x="0"
     inkscape:window-y="0"
     inkscape:window-maximized="1"
     units="mm" />
  <metadata
     id="metadata7">
    <rdf:RDF>
      <cc:Work
         rdf:about="">
        <dc:format>image/svg+xml</dc:format>
        <dc:type
           rdf:resource="http://purl.org/dc/dcmitype/StillImage" />
        <dc:title />
      </cc:Work>
    </rdf:RDF>
  </metadata>
  <g
     inkscape:label="Layer 1"
     inkscape:groupmode="layer"
     id="layer1"
     transform="translate(-104.86294,-60.956693)"
     style="display:inline">
    <path
       sodipodi:type="arc"
       style="fill:none;stroke:#0000ff;stroke-width:0.35136074;stroke-linecap:butt;stroke-linejoin:miter;stroke-miterlimit:4;stroke-opacity:1;stroke-dasharray:none;stroke-dashoffset:0"
       id="path3776"
       sodipodi:cx="44.456825"
       sodipodi:cy="57.933041"
       sodipodi:rx="11.794668"
       sodipodi:ry="16.331078"
       d="m 56.251493,57.933041 a 11.794668,16.331078 0 1 1 -23.589336,0 11.794668,16.331078 0 1 1 23.589336,0 z"
       transform="matrix(1.1866432,0,0,0.85702018,108.79248,67.990471)" />
    <path
       transform="matrix(1.1866432,0,0,0.85702018,108.79248,386.8881)"
       d="m 56.251493,57.933041 a 11.794668,16.331078 0 1 1 -23.589336,0 11.794668,16.331078 0 1 1 23.589336,0 z"
       sodipodi:ry="16.331078"
       sodipodi:rx="11.794668"
       sodipodi:cy="57.933041"
       sodipodi:cx="44.456825"
       id="path2998"
       style="fill:none;stroke:#0000ff;stroke-width:0.35136074;stroke-linecap:butt;stroke-linejoin:miter;stroke-miterlimit:4;stroke-opacity:1;stroke-dasharray:none;stroke-dashoffset:0"
       sodipodi:type="arc" />
    <g
       style="font-size:16px;font-style:normal;font-variant:normal;font-weight:normal;font-stretch:normal;text-align:start;line-height:125%;letter-spacing:0px;word-spacing:0px;writing-mode:lr-tb;text-anchor:start;fill:#000000;fill-opacity:1;stroke:none;font-family:Arial;-inkscape-font-specification:Arial"
       id="text3038"
       transform="translate(0,-4.1008461e-6)">
      <path
         inkscape:connector-curvature="0"
         d="m 125.34084,123.36682 4.42968,-5.96875 -3.90625,-5.48437 1.80469,0 2.07813,2.9375 c 0.43228,0.60938 0.73957,1.07813 0.92187,1.40625 0.2552,-0.41666 0.55729,-0.85156 0.90625,-1.30469 l 2.30469,-3.03906 1.64844,0 -4.02344,5.39843 4.33594,6.05469 -1.875,0 -2.88282,-4.08594 c -0.16146,-0.23437 -0.32813,-0.48957 -0.5,-0.76562 -0.25521,0.41667 -0.4375,0.70313 -0.54687,0.85937 l -2.875,3.99219 -1.82031,0"
         id="path3196" />
    </g>
    <g
       style="font-size:16px;font-style:normal;font-variant:normal;font-weight:normal;font-stretch:normal;text-align:start;line-height:125%;letter-spacing:0px;word-spacing:0px;writing-mode:lr-tb;text-anchor:start;fill:#000000;fill-opacity:1;stroke:none;font-family:Arial;-inkscape-font-specification:Arial"
       id="text3066"
       transform="translate(0,-7.0866251)">
      <path
         inkscape:connector-curvature="0"
         d="m 125.34084,449.35107 4.42968,-5.96875 -3.90625,-5.48437 1.80469,0 2.07813,2.9375 c 0.43228,0.60938 0.73957,1.07813 0.92187,1.40625 0.2552,-0.41666 0.55729,-0.85156 0.90625,-1.30469 l 2.30469,-3.03906 1.64844,0 -4.02344,5.39844 4.33594,6.05468 -1.875,0 -2.88282,-4.08593 c -0.16146,-0.23437 -0.32813,-0.48958 -0.5,-0.76563 -0.25521,0.41667 -0.4375,0.70313 -0.54687,0.85938 l -2.875,3.99218 -1.82031,0"
         id="path3175" />
    </g>
    <g
       style="font-size:16px;font-style:normal;font-variant:normal;font-weight:normal;font-stretch:normal;text-align:start;line-height:125%;letter-spacing:0px;word-spacing:0px;writing-mode:lr-tb;text-anchor:start;fill:#000000;fill-opacity:1;stroke:none;font-family:Arial;-inkscape-font-specification:Arial"
       id="text3070"
       transform="translate(0,-3.5432901)">
      <path
         inkscape:connector-curvature="0"
         d="m 126.84084,283.25739 1.40625,-0.1875 c 0.16145,0.79687 0.43489,1.37239 0.82031,1.72656 0.39062,0.34896 0.86458,0.52344 1.42187,0.52344 0.66146,0 1.21875,-0.22917 1.67188,-0.6875 0.45832,-0.45834 0.68749,-1.02604 0.6875,-1.70313 -1e-5,-0.64583 -0.21095,-1.17708 -0.63281,-1.59375 -0.42189,-0.42187 -0.95834,-0.63281 -1.60938,-0.63281 -0.26563,0 -0.59636,0.0521 -0.99219,0.15625 l 0.15625,-1.23438 c 0.0937,0.0104 0.16927,0.0156 0.22657,0.0156 0.59895,0 1.13801,-0.15625 1.61718,-0.46875 0.47916,-0.31249 0.71875,-0.79427 0.71875,-1.44531 0,-0.51562 -0.17448,-0.9427 -0.52343,-1.28125 -0.34897,-0.33854 -0.79949,-0.50781 -1.35157,-0.50782 -0.54688,10e-6 -1.0026,0.17189 -1.36718,0.51563 -0.36459,0.34376 -0.59897,0.85938 -0.70313,1.54687 l -1.40625,-0.25 c 0.17187,-0.9427 0.5625,-1.67186 1.17188,-2.1875 0.60937,-0.52082 1.36718,-0.78124 2.27343,-0.78125 0.625,10e-6 1.20052,0.13543 1.72657,0.40625 0.52603,0.26564 0.92707,0.63022 1.20312,1.09375 0.28124,0.46355 0.42187,0.95574 0.42188,1.47657 -10e-6,0.49479 -0.13282,0.94532 -0.39844,1.35156 -0.26563,0.40625 -0.65886,0.72917 -1.17969,0.96875 0.67708,0.15625 1.20312,0.48177 1.57813,0.97656 0.37499,0.48959 0.56249,1.10417 0.5625,1.84375 -10e-6,1 -0.3646,1.84896 -1.09375,2.54688 -0.72918,0.6927 -1.65105,1.03906 -2.76563,1.03906 -1.00521,0 -1.84115,-0.29948 -2.50781,-0.89844 -0.66146,-0.59896 -1.03907,-1.375 -1.13281,-2.32812"
         id="path3172" />
    </g>
    <g
       style="font-size:16px;font-style:normal;font-variant:normal;font-weight:normal;font-stretch:normal;text-align:start;line-height:125%;letter-spacing:0px;word-spacing:0px;writing-mode:lr-tb;text-anchor:start;fill:#000000;fill-opacity:1;stroke:none;font-family:Arial;-inkscape-font-specification:Arial"
       id="text3074"
       transform="translate(5e-6,-2.3622151)">
      <path
         inkscape:connector-curvature="0"
         d="m 131.59865,232.02824 0,-2.74218 -4.96875,0 0,-1.28907 5.22656,-7.42187 1.14844,0 0,7.42187 1.54687,0 0,1.28907 -1.54687,0 0,2.74218 -1.40625,0 m 0,-4.03125 0,-5.16406 -3.58594,5.16406 3.58594,0"
         id="path3169" />
    </g>
    <g
       style="font-size:16px;font-style:normal;font-variant:normal;font-weight:normal;font-stretch:normal;text-align:start;line-height:125%;letter-spacing:0px;word-spacing:0px;writing-mode:lr-tb;text-anchor:start;fill:#000000;fill-opacity:1;stroke:none;font-family:Arial;-inkscape-font-specification:Arial"
       id="text3078"
       transform="translate(5e-6,-4.7244001)">
      <path
         inkscape:connector-curvature="0"
         d="m 131.59865,340.68964 0,-2.74219 -4.96875,0 0,-1.28906 5.22656,-7.42188 1.14844,0 0,7.42188 1.54687,0 0,1.28906 -1.54687,0 0,2.74219 -1.40625,0 m 0,-4.03125 0,-5.16407 -3.58594,5.16407 3.58594,0"
         id="path3166" />
    </g>
    <g
       style="font-size:16px;font-style:normal;font-variant:normal;font-weight:normal;font-stretch:normal;text-align:start;line-height:125%;letter-spacing:0px;word-spacing:0px;writing-mode:lr-tb;text-anchor:start;fill:#000000;fill-opacity:1;stroke:none;font-family:Arial;-inkscape-font-specification:Arial"
       id="text3113"
       transform="translate(0,-1.4173301)">
      <path
         inkscape:connector-curvature="0"
         d="m 134.16896,179.841 -1.39844,0.10938 c -0.125,-0.55208 -0.30209,-0.95312 -0.53125,-1.20313 -0.38021,-0.40103 -0.84896,-0.60155 -1.40625,-0.60156 -0.44792,1e-5 -0.84115,0.12501 -1.17968,0.375 -0.44272,0.32293 -0.79167,0.79428 -1.04688,1.41406 -0.25521,0.6198 -0.38802,1.50261 -0.39844,2.64844 0.33854,-0.51562 0.7526,-0.89843 1.24219,-1.14844 0.48958,-0.24999 1.0026,-0.37499 1.53906,-0.375 0.9375,1e-5 1.73437,0.34636 2.39063,1.03907 0.66145,0.6875 0.99218,1.57813 0.99219,2.67187 -10e-6,0.71875 -0.15626,1.38802 -0.46875,2.00781 -0.3073,0.61459 -0.73178,1.08594 -1.27344,1.41407 -0.54167,0.32812 -1.15626,0.49218 -1.84375,0.49218 -1.17188,0 -2.12761,-0.42968 -2.86719,-1.28906 -0.73958,-0.86458 -1.10938,-2.28645 -1.10937,-4.26562 -1e-5,-2.21354 0.40885,-3.82291 1.22656,-4.82813 0.71354,-0.87499 1.67447,-1.31249 2.88281,-1.3125 0.90104,1e-5 1.63802,0.25262 2.21094,0.75781 0.57812,0.50522 0.92447,1.20314 1.03906,2.09375 m -5.74219,4.9375 c 0,0.48438 0.10156,0.94792 0.30469,1.39063 0.20833,0.44271 0.49739,0.78125 0.86719,1.01562 0.36979,0.22917 0.75781,0.34375 1.16406,0.34375 0.59375,0 1.10416,-0.23958 1.53125,-0.71875 0.42708,-0.47916 0.64062,-1.1302 0.64063,-1.95312 -10e-6,-0.79166 -0.21095,-1.41406 -0.63282,-1.86719 -0.42188,-0.45833 -0.95313,-0.68749 -1.59375,-0.6875 -0.63542,1e-5 -1.17448,0.22917 -1.61718,0.6875 -0.44272,0.45313 -0.66407,1.04948 -0.66407,1.78906"
         id="path3163" />
    </g>
    <g
       style="font-size:16px;font-style:normal;font-variant:normal;font-weight:normal;font-stretch:normal;text-align:start;line-height:125%;letter-spacing:0px;word-spacing:0px;writing-mode:lr-tb;text-anchor:start;fill:#000000;fill-opacity:1;stroke:none;font-family:Arial;-inkscape-font-specification:Arial"
       id="text3117"
       transform="translate(0,-5.6693101)">
      <path
         inkscape:connector-curvature="0"
         d="m 134.16896,375.43158 -1.39844,0.10937 c -0.125,-0.55207 -0.30209,-0.95311 -0.53125,-1.20312 -0.38021,-0.40103 -0.84896,-0.60155 -1.40625,-0.60156 -0.44792,1e-5 -0.84115,0.12501 -1.17968,0.375 -0.44272,0.32292 -0.79167,0.79428 -1.04688,1.41406 -0.25521,0.6198 -0.38802,1.50261 -0.39844,2.64844 0.33854,-0.51562 0.7526,-0.89843 1.24219,-1.14844 0.48958,-0.24999 1.0026,-0.37499 1.53906,-0.375 0.9375,1e-5 1.73437,0.34636 2.39063,1.03906 0.66145,0.68751 0.99218,1.57813 0.99219,2.67188 -10e-6,0.71875 -0.15626,1.38802 -0.46875,2.00781 -0.3073,0.61458 -0.73178,1.08594 -1.27344,1.41406 -0.54167,0.32813 -1.15626,0.49219 -1.84375,0.49219 -1.17188,0 -2.12761,-0.42969 -2.86719,-1.28906 -0.73958,-0.86458 -1.10938,-2.28646 -1.10937,-4.26563 -1e-5,-2.21353 0.40885,-3.82291 1.22656,-4.82812 0.71354,-0.87499 1.67447,-1.31249 2.88281,-1.3125 0.90104,1e-5 1.63802,0.25261 2.21094,0.75781 0.57812,0.50522 0.92447,1.20313 1.03906,2.09375 m -5.74219,4.9375 c 0,0.48438 0.10156,0.94792 0.30469,1.39062 0.20833,0.44271 0.49739,0.78126 0.86719,1.01563 0.36979,0.22917 0.75781,0.34375 1.16406,0.34375 0.59375,0 1.10416,-0.23958 1.53125,-0.71875 0.42708,-0.47916 0.64062,-1.13021 0.64063,-1.95313 -10e-6,-0.79166 -0.21095,-1.41405 -0.63282,-1.86718 -0.42188,-0.45833 -0.95313,-0.6875 -1.59375,-0.6875 -0.63542,0 -1.17448,0.22917 -1.61718,0.6875 -0.44272,0.45313 -0.66407,1.04948 -0.66407,1.78906"
         id="path3160" />
    </g>
    <g
       id="g4011"
       transform="translate(-3,40.649174)"
       style="stroke:#ff0000;stroke-opacity:1">
      <path
         sodipodi:nodetypes="cccc"
         transform="translate(104.86294,60.956693)"
         inkscape:connector-curvature="0"
         id="path3233"
         d="m 85.03937,113.37647 14.173228,0 -7.086614,-17.716534 z"
         style="fill:none;stroke:#ff0000;stroke-width:0.35433071999999999;stroke-linecap:butt;stroke-linejoin:miter;stroke-miterlimit:4;stroke-opacity:1;stroke-dasharray:none" />
      <rect
         y="195.77016"
         x="190.07948"
         height="31.535433"
         width="13.818898"
         id="rect3235"
         style="fill:none;stroke:#ff0000;stroke-width:0.35433071999999999;stroke-linecap:butt;stroke-linejoin:miter;stroke-miterlimit:4;stroke-opacity:1;stroke-dasharray:none;stroke-dashoffset:0" />
      <path
         transform="matrix(1.2016433,0,0,1.0629921,83.133229,53.392186)"
         d="m 100.5,123.77411 c 0,3.58985 -2.574363,6.5 -5.75,6.5 -3.175637,0 -5.75,-2.91015 -5.75,-6.5 0,-3.58985 2.574363,-6.5 5.75,-6.5 3.175637,0 5.75,2.91015 5.75,6.5 z"
         sodipodi:ry="6.5"
         sodipodi:rx="5.75"
         sodipodi:cy="123.77411"
         sodipodi:cx="94.75"
         id="path3237"
         style="fill:none;stroke:#ff0000;stroke-width:0.31351330999999999;stroke-linecap:butt;stroke-linejoin:miter;stroke-miterlimit:4;stroke-opacity:1;stroke-dasharray:none;stroke-dashoffset:0"
         sodipodi:type="arc" />
      <path
         sodipodi:type="arc"
         style="fill:none;stroke:#ff0000;stroke-width:0.31351330999999999;stroke-linecap:butt;stroke-linejoin:miter;stroke-miterlimit:4;stroke-opacity:1;stroke-dasharray:none;stroke-dashoffset:0"
         id="path3239"
         sodipodi:cx="94.75"
         sodipodi:cy="123.77411"
         sodipodi:rx="5.75"
         sodipodi:ry="6.5"
         d="m 100.5,123.77411 c 0,3.58985 -2.574363,6.5 -5.75,6.5 -3.175637,0 -5.75,-2.91015 -5.75,-6.5 0,-3.58985 2.574363,-6.5 5.75,-6.5 3.175637,0 5.75,2.91015 5.75,6.5 z"
         transform="matrix(1.2016433,0,0,1.0629921,83.133222,106.54179)" />
      <path
         style="fill:none;stroke:#ff0000;stroke-width:0.35433071999999999;stroke-linecap:butt;stroke-linejoin:miter;stroke-miterlimit:4;stroke-opacity:1;stroke-dasharray:none"
         d="m 190.40231,248.24262 14.17323,0 -7.08662,17.71653 z"
         id="path3241"
         inkscape:connector-curvature="0"
         sodipodi:nodetypes="cccc" />
    </g>
    <g
       id="g4061"
       transform="translate(0.68849,-43.794984)">
      <path
         d="m 188.81606,158.71518 0,-11.45313 3.94532,0 c 0.89062,1e-5 1.5703,0.0547 2.03906,0.16406 0.65624,0.15106 1.21614,0.42449 1.67969,0.82032 0.60415,0.51042 1.05467,1.16407 1.35156,1.96093 0.30207,0.79168 0.45311,1.69793 0.45312,2.71875 -1e-5,0.8698 -0.10157,1.64063 -0.30468,2.3125 -0.20314,0.67188 -0.46355,1.22917 -0.78125,1.67188 -0.31772,0.4375 -0.66668,0.78385 -1.04688,1.03906 -0.37501,0.25 -0.83073,0.44011 -1.36719,0.57031 -0.53125,0.13021 -1.14323,0.19532 -1.83593,0.19532 l -4.13282,0 m 1.51563,-1.35157 2.44531,0 c 0.7552,1e-5 1.34635,-0.0703 1.77344,-0.21093 0.43228,-0.14063 0.77603,-0.33854 1.03125,-0.59375 0.35937,-0.35938 0.63801,-0.84115 0.83594,-1.44532 0.20311,-0.60937 0.30468,-1.34635 0.30468,-2.21093 0,-1.19791 -0.19792,-2.11718 -0.59375,-2.75782 -0.39063,-0.64582 -0.86719,-1.07811 -1.42968,-1.29687 -0.40626,-0.15624 -1.0599,-0.23437 -1.96094,-0.23438 l -2.40625,0 0,8.75"
         style="font-size:16px;font-style:normal;font-variant:normal;font-weight:normal;font-stretch:normal;text-align:start;line-height:125%;letter-spacing:0px;word-spacing:0px;writing-mode:tb-rl;text-anchor:start;fill:#000000;fill-opacity:1;stroke:none;font-family:Arial;-inkscape-font-specification:Arial"
         id="path4027"
         inkscape:connector-curvature="0" />
      <path
         d="m 189.66372,168.84017 c 0,-1.53645 0.42709,-2.67447 1.28125,-3.41406 0.71354,-0.61457 1.58333,-0.92187 2.60937,-0.92187 1.14063,0 2.07292,0.375 2.79688,1.125 0.72395,0.74479 1.08593,1.77604 1.08594,3.09375 -1e-5,1.06771 -0.16146,1.90885 -0.48438,2.52343 -0.31772,0.60938 -0.78386,1.08334 -1.39844,1.42188 -0.60937,0.33854 -1.27604,0.50781 -2,0.50781 -1.16146,0 -2.10157,-0.37239 -2.82031,-1.11719 -0.71355,-0.74479 -1.07032,-1.8177 -1.07032,-3.21875 m 1.44532,0 c 0,1.06251 0.23178,1.85938 0.69531,2.39063 0.46354,0.52604 1.04688,0.78906 1.75,0.78906 0.69792,0 1.27864,-0.26562 1.74219,-0.79687 0.46353,-0.53125 0.6953,-1.34115 0.69531,-2.42969 -1e-5,-1.02604 -0.23437,-1.80208 -0.70312,-2.32813 -0.46354,-0.53124 -1.04167,-0.79686 -1.73438,-0.79687 -0.70312,1e-5 -1.28646,0.26303 -1.75,0.78906 -0.46353,0.52605 -0.69531,1.32032 -0.69531,2.38281"
         style="font-size:16px;font-style:normal;font-variant:normal;font-weight:normal;font-stretch:normal;text-align:start;line-height:125%;letter-spacing:0px;word-spacing:0px;writing-mode:tb-rl;text-anchor:start;fill:#000000;fill-opacity:1;stroke:none;font-family:Arial;-inkscape-font-specification:Arial"
         id="path4029"
         inkscape:connector-curvature="0" />
      <path
         d="m 189.66372,183.30111 c 0,-1.53645 0.42709,-2.67447 1.28125,-3.41406 0.71354,-0.61458 1.58333,-0.92187 2.60937,-0.92188 1.14063,1e-5 2.07292,0.37501 2.79688,1.125 0.72395,0.7448 1.08593,1.77605 1.08594,3.09375 -1e-5,1.06772 -0.16146,1.90886 -0.48438,2.52344 -0.31772,0.60938 -0.78386,1.08334 -1.39844,1.42188 -0.60937,0.33854 -1.27604,0.50781 -2,0.50781 -1.16146,0 -2.10157,-0.3724 -2.82031,-1.11719 -0.71355,-0.74479 -1.07032,-1.8177 -1.07032,-3.21875 m 1.44532,0 c 0,1.0625 0.23178,1.85938 0.69531,2.39063 0.46354,0.52604 1.04688,0.78906 1.75,0.78906 0.69792,0 1.27864,-0.26562 1.74219,-0.79688 0.46353,-0.53124 0.6953,-1.34114 0.69531,-2.42968 -1e-5,-1.02604 -0.23437,-1.80208 -0.70312,-2.32813 -0.46354,-0.53124 -1.04167,-0.79687 -1.73438,-0.79687 -0.70312,0 -1.28646,0.26302 -1.75,0.78906 -0.46353,0.52605 -0.69531,1.32032 -0.69531,2.38281"
         style="font-size:16px;font-style:normal;font-variant:normal;font-weight:normal;font-stretch:normal;text-align:start;line-height:125%;letter-spacing:0px;word-spacing:0px;writing-mode:tb-rl;text-anchor:start;fill:#000000;fill-opacity:1;stroke:none;font-family:Arial;-inkscape-font-specification:Arial"
         id="path4031"
         inkscape:connector-curvature="0" />
      <path
         d="m 191.29653,201.91049 0,-8.29688 1.26562,0 0,1.25781 c 0.32292,-0.58853 0.61979,-0.97655 0.89063,-1.16406 0.27604,-0.18749 0.57812,-0.28124 0.90625,-0.28125 0.47395,1e-5 0.95572,0.15105 1.44531,0.45313 l -0.48438,1.30468 c -0.34375,-0.20311 -0.6875,-0.30468 -1.03125,-0.30468 -0.30729,0 -0.58333,0.0937 -0.82812,0.28125 -0.2448,0.18229 -0.41927,0.4375 -0.52344,0.76562 -0.15625,0.50001 -0.23438,1.04688 -0.23437,1.64063 l 0,4.34375 -1.40625,0"
         style="font-size:16px;font-style:normal;font-variant:normal;font-weight:normal;font-stretch:normal;text-align:start;line-height:125%;letter-spacing:0px;word-spacing:0px;writing-mode:tb-rl;text-anchor:start;fill:#000000;fill-opacity:1;stroke:none;font-family:Arial;-inkscape-font-specification:Arial"
         id="path4033"
         inkscape:connector-curvature="0" />
    </g>
    <g
       id="g4067"
       transform="translate(-77.05761,183.19193)">
      <path
         d="m 266.73794,170.53546 1.42969,-0.125 c 0.0677,0.57292 0.22395,1.04427 0.46875,1.41406 0.24999,0.36458 0.63541,0.66146 1.15625,0.89062 0.52083,0.22396 1.10676,0.33594 1.75781,0.33594 0.57812,0 1.08854,-0.0859 1.53125,-0.25781 0.4427,-0.17187 0.77083,-0.40625 0.98437,-0.70313 0.21875,-0.30208 0.32812,-0.6302 0.32813,-0.98437 -10e-6,-0.35937 -0.10417,-0.67187 -0.3125,-0.9375 -0.20834,-0.27083 -0.55209,-0.49739 -1.03125,-0.67969 -0.3073,-0.11979 -0.98699,-0.30468 -2.03906,-0.55469 -1.05209,-0.2552 -1.78907,-0.49478 -2.21094,-0.71875 -0.54688,-0.28645 -0.95573,-0.64061 -1.22656,-1.0625 -0.26563,-0.42707 -0.39844,-0.90363 -0.39844,-1.42968 0,-0.57812 0.16406,-1.11718 0.49219,-1.61719 0.32812,-0.5052 0.80729,-0.88801 1.4375,-1.14844 0.6302,-0.2604 1.33072,-0.39061 2.10156,-0.39062 0.84895,1e-5 1.59635,0.13803 2.24219,0.41406 0.65103,0.27084 1.15103,0.67188 1.5,1.20312 0.34895,0.53126 0.53645,1.13283 0.5625,1.80469 l -1.45313,0.10938 c -0.0781,-0.72395 -0.34376,-1.27083 -0.79687,-1.64063 -0.44793,-0.36978 -1.11199,-0.55468 -1.99219,-0.55469 -0.91667,1e-5 -1.58594,0.16928 -2.00781,0.50782 -0.41667,0.33334 -0.62501,0.73698 -0.625,1.21093 -10e-6,0.41147 0.14843,0.75001 0.44531,1.01563 0.29166,0.26563 1.05208,0.53907 2.28125,0.82031 1.23437,0.27605 2.08072,0.51824 2.53906,0.72656 0.66666,0.3073 1.15885,0.69793 1.47656,1.17188 0.3177,0.46875 0.47656,1.01042 0.47657,1.625 -10e-6,0.60938 -0.17449,1.1849 -0.52344,1.72656 -0.34897,0.53646 -0.85157,0.95573 -1.50781,1.25781 -0.65105,0.29688 -1.38543,0.44532 -2.20313,0.44532 -1.03646,0 -1.90625,-0.15105 -2.60937,-0.45313 -0.69792,-0.30208 -1.2474,-0.75521 -1.64844,-1.35937 -0.39583,-0.60938 -0.60417,-1.29688 -0.625,-2.0625"
         style="font-size:16px;font-style:normal;font-variant:normal;font-weight:normal;font-stretch:normal;text-align:start;line-height:125%;letter-spacing:0px;word-spacing:0px;writing-mode:tb-rl;text-anchor:start;fill:#000000;fill-opacity:1;stroke:none;font-family:Arial;-inkscape-font-specification:Arial"
         id="path4036"
         inkscape:connector-curvature="0" />
      <path
         d="m 273.11685,190.97036 0.20312,1.24219 c -0.39583,0.0833 -0.75,0.125 -1.0625,0.125 -0.51041,0 -0.90625,-0.0807 -1.1875,-0.24219 -0.28125,-0.16146 -0.47916,-0.3724 -0.59375,-0.63281 -0.11458,-0.26563 -0.17187,-0.82031 -0.17187,-1.66407 l 0,-4.77343 -1.03125,0 0,-1.09375 1.03125,0 0,-2.05469 1.39844,-0.84375 0,2.89844 1.41406,0 0,1.09375 -1.41406,0 0,4.85156 c -10e-6,0.40104 0.0234,0.65885 0.0703,0.77344 0.0521,0.11458 0.13281,0.20573 0.24219,0.27343 0.11458,0.0677 0.27604,0.10157 0.48437,0.10157 0.15625,0 0.36198,-0.0182 0.61719,-0.0547"
         style="font-size:16px;font-style:normal;font-variant:normal;font-weight:normal;font-stretch:normal;text-align:start;line-height:125%;letter-spacing:0px;word-spacing:0px;writing-mode:tb-rl;text-anchor:start;fill:#000000;fill-opacity:1;stroke:none;font-family:Arial;-inkscape-font-specification:Arial"
         id="path4038"
         inkscape:connector-curvature="0" />
      <path
         d="m 267.40981,203.29589 c 0,-1.53645 0.42709,-2.67447 1.28125,-3.41406 0.71354,-0.61458 1.58333,-0.92187 2.60938,-0.92188 1.14062,1e-5 2.07291,0.37501 2.79687,1.125 0.72396,0.7448 1.08593,1.77605 1.08594,3.09375 -10e-6,1.06772 -0.16146,1.90886 -0.48437,2.52344 -0.31772,0.60938 -0.78386,1.08334 -1.39844,1.42188 -0.60938,0.33854 -1.27605,0.50781 -2,0.50781 -1.16146,0 -2.10156,-0.3724 -2.82031,-1.11719 -0.71355,-0.74479 -1.07032,-1.8177 -1.07032,-3.21875 m 1.44532,0 c 0,1.0625 0.23177,1.85938 0.69531,2.39063 0.46354,0.52604 1.04687,0.78906 1.75,0.78906 0.69791,0 1.27864,-0.26562 1.74219,-0.79688 0.46353,-0.53124 0.6953,-1.34114 0.69531,-2.42968 -10e-6,-1.02604 -0.23438,-1.80208 -0.70313,-2.32813 -0.46354,-0.53124 -1.04167,-0.79687 -1.73437,-0.79687 -0.70313,0 -1.28646,0.26302 -1.75,0.78906 -0.46354,0.52605 -0.69531,1.32032 -0.69531,2.38281"
         style="font-size:16px;font-style:normal;font-variant:normal;font-weight:normal;font-stretch:normal;text-align:start;line-height:125%;letter-spacing:0px;word-spacing:0px;writing-mode:tb-rl;text-anchor:start;fill:#000000;fill-opacity:1;stroke:none;font-family:Arial;-inkscape-font-specification:Arial"
         id="path4040"
         inkscape:connector-curvature="0" />
      <path
         d="m 267.69497,225.9183 0,-11.47656 1.28125,0 0,1.07813 c 0.30208,-0.42187 0.64323,-0.73697 1.02344,-0.94532 0.3802,-0.21353 0.84114,-0.3203 1.38281,-0.32031 0.70833,1e-5 1.33333,0.1823 1.875,0.54688 0.54166,0.36459 0.95052,0.88021 1.22656,1.54687 0.27604,0.66147 0.41406,1.38803 0.41407,2.17969 -10e-6,0.84896 -0.15366,1.61458 -0.46094,2.29687 -0.30209,0.67709 -0.7448,1.19792 -1.32813,1.5625 -0.57813,0.35938 -1.1875,0.53907 -1.82812,0.53907 -0.46875,0 -0.89063,-0.099 -1.26563,-0.29688 -0.36979,-0.19791 -0.67448,-0.44791 -0.91406,-0.75 l 0,4.03906 -1.40625,0 m 1.27344,-7.28125 c 0,1.06772 0.21614,1.85678 0.64844,2.36719 0.43229,0.51042 0.95572,0.76563 1.57031,0.76563 0.62499,0 1.15885,-0.26302 1.60156,-0.78907 0.44791,-0.53124 0.67187,-1.35156 0.67188,-2.46093 -10e-6,-1.05729 -0.21876,-1.84896 -0.65625,-2.375 -0.4323,-0.52604 -0.95053,-0.78906 -1.55469,-0.78907 -0.59896,1e-5 -1.13021,0.28126 -1.59375,0.84375 -0.45834,0.5573 -0.6875,1.3698 -0.6875,2.4375"
         style="font-size:16px;font-style:normal;font-variant:normal;font-weight:normal;font-stretch:normal;text-align:start;line-height:125%;letter-spacing:0px;word-spacing:0px;writing-mode:tb-rl;text-anchor:start;fill:#000000;fill-opacity:1;stroke:none;font-family:Arial;-inkscape-font-specification:Arial"
         id="path4042"
         inkscape:connector-curvature="0" />
      <path
         d="m 267.69497,244.20477 0,-11.47656 1.28125,0 0,1.07812 c 0.30208,-0.42186 0.64323,-0.73697 1.02344,-0.94531 0.3802,-0.21353 0.84114,-0.3203 1.38281,-0.32031 0.70833,1e-5 1.33333,0.1823 1.875,0.54687 0.54166,0.36459 0.95052,0.88022 1.22656,1.54688 0.27604,0.66146 0.41406,1.38802 0.41407,2.17969 -10e-6,0.84896 -0.15366,1.61458 -0.46094,2.29687 -0.30209,0.67709 -0.7448,1.19792 -1.32813,1.5625 -0.57813,0.35938 -1.1875,0.53906 -1.82812,0.53906 -0.46875,0 -0.89063,-0.099 -1.26563,-0.29687 -0.36979,-0.19792 -0.67448,-0.44792 -0.91406,-0.75 l 0,4.03906 -1.40625,0 m 1.27344,-7.28125 c 0,1.06771 0.21614,1.85677 0.64844,2.36719 0.43229,0.51042 0.95572,0.76562 1.57031,0.76562 0.62499,0 1.15885,-0.26302 1.60156,-0.78906 0.44791,-0.53125 0.67187,-1.35156 0.67188,-2.46094 -10e-6,-1.05728 -0.21876,-1.84895 -0.65625,-2.375 -0.4323,-0.52603 -0.95053,-0.78905 -1.55469,-0.78906 -0.59896,1e-5 -1.13021,0.28126 -1.59375,0.84375 -0.45834,0.5573 -0.6875,1.3698 -0.6875,2.4375"
         style="font-size:16px;font-style:normal;font-variant:normal;font-weight:normal;font-stretch:normal;text-align:start;line-height:125%;letter-spacing:0px;word-spacing:0px;writing-mode:tb-rl;text-anchor:start;fill:#000000;fill-opacity:1;stroke:none;font-family:Arial;-inkscape-font-specification:Arial"
         id="path4044"
         inkscape:connector-curvature="0" />
      <path
         d="m 273.62075,256.63967 1.45312,0.17968 c -0.22917,0.84896 -0.65365,1.50782 -1.27343,1.97657 -0.6198,0.46875 -1.41147,0.70312 -2.375,0.70312 -1.21355,0 -2.17709,-0.37239 -2.89063,-1.11719 -0.70833,-0.74999 -1.0625,-1.79947 -1.0625,-3.14843 0,-1.39583 0.35938,-2.47916 1.07813,-3.25 0.71875,-0.77083 1.65104,-1.15625 2.79687,-1.15625 1.10937,0 2.01562,0.37761 2.71875,1.13281 0.70312,0.75521 1.05468,1.81771 1.05469,3.1875 -10e-6,0.0833 -0.003,0.20834 -0.008,0.375 l -6.1875,0 c 0.0521,0.91146 0.30989,1.60938 0.77343,2.09375 0.46355,0.48438 1.04168,0.72656 1.73438,0.72656 0.51562,0 0.95572,-0.13541 1.32031,-0.40625 0.36458,-0.27083 0.65364,-0.70312 0.86719,-1.29687 m -4.61719,-2.27344 4.63281,0 c -0.0625,-0.69791 -0.23957,-1.22135 -0.53125,-1.57031 -0.44792,-0.54166 -1.02865,-0.8125 -1.74218,-0.8125 -0.64584,0 -1.19011,0.21615 -1.63282,0.64843 -0.4375,0.4323 -0.67968,1.01043 -0.72656,1.73438"
         style="font-size:16px;font-style:normal;font-variant:normal;font-weight:normal;font-stretch:normal;text-align:start;line-height:125%;letter-spacing:0px;word-spacing:0px;writing-mode:tb-rl;text-anchor:start;fill:#000000;fill-opacity:1;stroke:none;font-family:Arial;-inkscape-font-specification:Arial"
         id="path4046"
         inkscape:connector-curvature="0" />
      <path
         d="m 269.04263,274.6058 0,-8.29688 1.26562,0 0,1.25782 c 0.32292,-0.58854 0.61979,-0.97656 0.89063,-1.16407 0.27604,-0.18749 0.57812,-0.28124 0.90625,-0.28125 0.47395,10e-6 0.95572,0.15105 1.44531,0.45313 l -0.48438,1.30469 c -0.34375,-0.20312 -0.6875,-0.30468 -1.03125,-0.30469 -0.30729,1e-5 -0.58333,0.0938 -0.82812,0.28125 -0.24479,0.1823 -0.41927,0.43751 -0.52344,0.76562 -0.15625,0.50001 -0.23437,1.04688 -0.23437,1.64063 l 0,4.34375 -1.40625,0"
         style="font-size:16px;font-style:normal;font-variant:normal;font-weight:normal;font-stretch:normal;text-align:start;line-height:125%;letter-spacing:0px;word-spacing:0px;writing-mode:tb-rl;text-anchor:start;fill:#000000;fill-opacity:1;stroke:none;font-family:Arial;-inkscape-font-specification:Arial"
         id="path4048"
         inkscape:connector-curvature="0" />
    </g>
    <g
       id="g4184"
       transform="translate(0,-1.0637476)">
      <g
         id="g4159">
        <path
           style="fill:none;stroke:#ff0000;stroke-width:0.35433072;stroke-linecap:butt;stroke-linejoin:miter;stroke-miterlimit:4;stroke-opacity:1;stroke-dasharray:none"
           d="m 166.51061,108.35242 c 5.57407,-16.550279 14.88757,-23.830727 24.0549,-24.166783"
           id="path4141"
           inkscape:connector-curvature="0"
           sodipodi:nodetypes="cc" />
        <path
           sodipodi:nodetypes="cc"
           inkscape:connector-curvature="0"
           id="path4145"
           d="m 165.39178,108.35242 c 1.32251,-18.787945 7.05575,-24.837677 15.10424,-28.977763"
           style="fill:none;stroke:#ff0000;stroke-width:0.35433072;stroke-linecap:butt;stroke-linejoin:miter;stroke-miterlimit:4;stroke-opacity:1;stroke-dasharray:none" />
        <path
           style="fill:none;stroke:#ff0000;stroke-width:0.35433072;stroke-linecap:butt;stroke-linejoin:miter;stroke-miterlimit:4;stroke-opacity:1;stroke-dasharray:none"
           d="m 163.60164,108.35242 c 0.0918,-18.228529 1.79724,-24.390144 7.49618,-31.103545"
           id="path4147"
           inkscape:connector-curvature="0"
           sodipodi:nodetypes="cc" />
        <path
           style="fill:none;stroke:#ff0000;stroke-width:0.35433072;stroke-linecap:butt;stroke-linejoin:miter;stroke-miterlimit:4;stroke-opacity:1;stroke-dasharray:none"
           d="m 161.75557,108.35242 0,-40.389854"
           id="path4149"
           inkscape:path-effect="#path-effect4151"
           inkscape:original-d="m 161.75557,108.35242 0,-40.389854"
           inkscape:connector-curvature="0"
           sodipodi:nodetypes="cc" />
        <path
           sodipodi:nodetypes="cc"
           inkscape:connector-curvature="0"
           id="path4153"
           d="M 159.9095,108.35242 C 159.8177,90.123893 158.11226,83.962283 152.41332,77.248883"
           style="fill:none;stroke:#ff0000;stroke-width:0.35433072;stroke-linecap:butt;stroke-linejoin:miter;stroke-miterlimit:4;stroke-opacity:1;stroke-dasharray:none" />
        <path
           style="fill:none;stroke:#ff0000;stroke-width:0.35433072;stroke-linecap:butt;stroke-linejoin:miter;stroke-miterlimit:4;stroke-opacity:1;stroke-dasharray:none"
           d="M 158.11937,108.35242 C 156.79686,89.564482 151.06362,83.514752 143.01513,79.374662"
           id="path4155"
           inkscape:connector-curvature="0"
           sodipodi:nodetypes="cc" />
        <path
           sodipodi:nodetypes="cc"
           inkscape:connector-curvature="0"
           id="path4157"
           d="M 157.00053,108.35242 C 151.42646,91.802137 142.11297,84.521687 132.94564,84.185637"
           style="fill:none;stroke:#ff0000;stroke-width:0.35433072;stroke-linecap:butt;stroke-linejoin:miter;stroke-miterlimit:4;stroke-opacity:1;stroke-dasharray:none" />
      </g>
      <g
         transform="matrix(1,0,0,-1,0,556.31499)"
         id="g4168">
        <path
           sodipodi:nodetypes="cc"
           inkscape:connector-curvature="0"
           id="path4170"
           d="m 166.51061,108.35242 c 5.57407,-16.550279 14.88757,-23.830727 24.0549,-24.166783"
           style="fill:none;stroke:#ff0000;stroke-width:0.35433072;stroke-linecap:butt;stroke-linejoin:miter;stroke-miterlimit:4;stroke-opacity:1;stroke-dasharray:none" />
        <path
           style="fill:none;stroke:#ff0000;stroke-width:0.35433072;stroke-linecap:butt;stroke-linejoin:miter;stroke-miterlimit:4;stroke-opacity:1;stroke-dasharray:none"
           d="m 165.39178,108.35242 c 1.32251,-18.787945 7.05575,-24.837677 15.10424,-28.977763"
           id="path4172"
           inkscape:connector-curvature="0"
           sodipodi:nodetypes="cc" />
        <path
           sodipodi:nodetypes="cc"
           inkscape:connector-curvature="0"
           id="path4174"
           d="m 163.60164,108.35242 c 0.0918,-18.228529 1.79724,-24.390144 7.49618,-31.103545"
           style="fill:none;stroke:#ff0000;stroke-width:0.35433072;stroke-linecap:butt;stroke-linejoin:miter;stroke-miterlimit:4;stroke-opacity:1;stroke-dasharray:none" />
        <path
           sodipodi:nodetypes="cc"
           inkscape:connector-curvature="0"
           inkscape:original-d="m 161.75557,108.35242 0,-40.389854"
           inkscape:path-effect="#path-effect4151"
           id="path4176"
           d="m 161.75557,108.35242 0,-40.389854"
           style="fill:none;stroke:#ff0000;stroke-width:0.35433072;stroke-linecap:butt;stroke-linejoin:miter;stroke-miterlimit:4;stroke-opacity:1;stroke-dasharray:none" />
        <path
           style="fill:none;stroke:#ff0000;stroke-width:0.35433072;stroke-linecap:butt;stroke-linejoin:miter;stroke-miterlimit:4;stroke-opacity:1;stroke-dasharray:none"
           d="M 159.9095,108.35242 C 159.8177,90.123893 158.11226,83.962283 152.41332,77.248883"
           id="path4178"
           inkscape:connector-curvature="0"
           sodipodi:nodetypes="cc" />
        <path
           sodipodi:nodetypes="cc"
           inkscape:connector-curvature="0"
           id="path4180"
           d="M 158.11937,108.35242 C 156.79686,89.564482 151.06362,83.514752 143.01513,79.374662"
           style="fill:none;stroke:#ff0000;stroke-width:0.35433072;stroke-linecap:butt;stroke-linejoin:miter;stroke-miterlimit:4;stroke-opacity:1;stroke-dasharray:none" />
        <path
           style="fill:none;stroke:#ff0000;stroke-width:0.35433072;stroke-linecap:butt;stroke-linejoin:miter;stroke-miterlimit:4;stroke-opacity:1;stroke-dasharray:none"
           d="M 157.00053,108.35242 C 151.42646,91.802137 142.11297,84.521687 132.94564,84.185637"
           id="path4182"
           inkscape:connector-curvature="0"
           sodipodi:nodetypes="cc" />
      </g>
    </g>
    <path
       sodipodi:type="arc"
       style="fill:none;stroke:#0000ff;stroke-width:0.35136074;stroke-linecap:butt;stroke-linejoin:miter;stroke-miterlimit:4;stroke-opacity:1;stroke-dasharray:none;stroke-dashoffset:0"
       id="path3091"
       sodipodi:cx="44.456825"
       sodipodi:cy="57.933041"
       sodipodi:rx="11.794668"
       sodipodi:ry="16.331078"
       d="m 56.251493,57.933041 a 11.794668,16.331078 0 1 1 -23.589336,0 11.794668,16.331078 0 1 1 23.589336,0 z"
       transform="matrix(1.1866432,0,0,0.85702018,108.79248,227.43928)" />
    <path
       style="fill:none;stroke:#0000ff;stroke-width:0.35433075;stroke-linecap:butt;stroke-linejoin:miter;stroke-miterlimit:4;stroke-opacity:1;stroke-dasharray:none;stroke-dashoffset:0"
       d="M 56.6875 234.03125 C 48.957688 234.03125 42.6875 240.30144 42.6875 248.03125 C 42.6875 252.28446 44.599504 256.05807 47.59375 258.625 C 44.590336 261.19206 42.6875 265.02053 42.6875 269.28125 C 42.6875 277.01106 48.957688 283.28125 56.6875 283.28125 C 64.417312 283.28125 70.6875 277.01106 70.6875 269.28125 C 70.6875 265.02053 68.784664 261.19206 65.78125 258.625 C 68.775496 256.05807 70.6875 252.28446 70.6875 248.03125 C 70.6875 240.30144 64.417312 234.03125 56.6875 234.03125 z "
       transform="translate(104.86294,60.956693)"
       id="path3093" />
    <path
       style="fill:none;stroke:#0000ff;stroke-width:0.35433075;stroke-linecap:butt;stroke-linejoin:miter;stroke-miterlimit:4;stroke-opacity:1;stroke-dasharray:none;stroke-dashoffset:0"
       d="M 56.6875 149 C 48.957688 149 42.6875 155.23894 42.6875 162.96875 C 42.6875 167.22947 44.590336 171.05794 47.59375 173.625 C 44.599504 176.19193 42.6875 179.99679 42.6875 184.25 C 42.6875 191.97981 48.957688 198.25 56.6875 198.25 C 64.417312 198.25 70.6875 191.97981 70.6875 184.25 C 70.6875 179.99679 68.775496 176.19193 65.78125 173.625 C 68.784664 171.05794 70.6875 167.22947 70.6875 162.96875 C 70.6875 155.23894 64.417312 149 56.6875 149 z "
       transform="translate(104.86294,60.956693)"
       id="path3095" />
    <path
       sodipodi:type="arc"
       style="fill:none;stroke:#0000ff;stroke-width:0.35136074;stroke-linecap:butt;stroke-linejoin:miter;stroke-miterlimit:4;stroke-opacity:1;stroke-dasharray:none;stroke-dashoffset:0"
       id="path3103"
       sodipodi:cx="44.456825"
       sodipodi:cy="57.933041"
       sodipodi:rx="11.794668"
       sodipodi:ry="16.331078"
       d="m 56.251493,57.933041 a 11.794668,16.331078 0 1 1 -23.589336,0 11.794668,16.331078 0 1 1 23.589336,0 z"
       transform="matrix(1.1866432,0,0,0.85702018,108.79248,323.10858)" />
    <path
       transform="matrix(1.1866432,0,0,0.85702018,108.79248,131.76998)"
       d="m 56.251493,57.933041 a 11.794668,16.331078 0 1 1 -23.589336,0 11.794668,16.331078 0 1 1 23.589336,0 z"
       sodipodi:ry="16.331078"
       sodipodi:rx="11.794668"
       sodipodi:cy="57.933041"
       sodipodi:cx="44.456825"
       id="path3109"
       style="fill:none;stroke:#0000ff;stroke-width:0.35136074;stroke-linecap:butt;stroke-linejoin:miter;stroke-miterlimit:4;stroke-opacity:1;stroke-dasharray:none;stroke-dashoffset:0"
       sodipodi:type="arc" />
    <g
       id="g3169"
       style="font-size:16px;font-style:normal;font-variant:normal;font-weight:normal;font-stretch:normal;text-align:start;line-height:125%;letter-spacing:0px;word-spacing:0px;writing-mode:lr-tb;text-anchor:start;fill:#000000;fill-opacity:1;stroke:none;font-family:Arial;-inkscape-font-specification:Arial"
       transform="translate(0,62.3622)">
      <path
         id="path3171"
         d="m 134.16896,179.841 -1.39844,0.10938 c -0.125,-0.55208 -0.30209,-0.95312 -0.53125,-1.20313 -0.38021,-0.40103 -0.84896,-0.60155 -1.40625,-0.60156 -0.44792,1e-5 -0.84115,0.12501 -1.17968,0.375 -0.44272,0.32293 -0.79167,0.79428 -1.04688,1.41406 -0.25521,0.6198 -0.38802,1.50261 -0.39844,2.64844 0.33854,-0.51562 0.7526,-0.89843 1.24219,-1.14844 0.48958,-0.24999 1.0026,-0.37499 1.53906,-0.375 0.9375,1e-5 1.73437,0.34636 2.39063,1.03907 0.66145,0.6875 0.99218,1.57813 0.99219,2.67187 -10e-6,0.71875 -0.15626,1.38802 -0.46875,2.00781 -0.3073,0.61459 -0.73178,1.08594 -1.27344,1.41407 -0.54167,0.32812 -1.15626,0.49218 -1.84375,0.49218 -1.17188,0 -2.12761,-0.42968 -2.86719,-1.28906 -0.73958,-0.86458 -1.10938,-2.28645 -1.10937,-4.26562 -1e-5,-2.21354 0.40885,-3.82291 1.22656,-4.82813 0.71354,-0.87499 1.67447,-1.31249 2.88281,-1.3125 0.90104,1e-5 1.63802,0.25262 2.21094,0.75781 0.57812,0.50522 0.92447,1.20314 1.03906,2.09375 m -5.74219,4.9375 c 0,0.48438 0.10156,0.94792 0.30469,1.39063 0.20833,0.44271 0.49739,0.78125 0.86719,1.01562 0.36979,0.22917 0.75781,0.34375 1.16406,0.34375 0.59375,0 1.10416,-0.23958 1.53125,-0.71875 0.42708,-0.47916 0.64062,-1.1302 0.64063,-1.95312 -10e-6,-0.79166 -0.21095,-1.41406 -0.63282,-1.86719 -0.42188,-0.45833 -0.95313,-0.68749 -1.59375,-0.6875 -0.63542,1e-5 -1.17448,0.22917 -1.61718,0.6875 -0.44272,0.45313 -0.66407,1.04948 -0.66407,1.78906"
         inkscape:connector-curvature="0" />
    </g>
    <g
       transform="translate(0,126.14172)"
       style="font-size:16px;font-style:normal;font-variant:normal;font-weight:normal;font-stretch:normal;text-align:start;line-height:125%;letter-spacing:0px;word-spacing:0px;writing-mode:lr-tb;text-anchor:start;fill:#000000;fill-opacity:1;stroke:none;font-family:Arial;-inkscape-font-specification:Arial"
       id="g3173">
      <path
         inkscape:connector-curvature="0"
         d="m 134.16896,179.841 -1.39844,0.10938 c -0.125,-0.55208 -0.30209,-0.95312 -0.53125,-1.20313 -0.38021,-0.40103 -0.84896,-0.60155 -1.40625,-0.60156 -0.44792,1e-5 -0.84115,0.12501 -1.17968,0.375 -0.44272,0.32293 -0.79167,0.79428 -1.04688,1.41406 -0.25521,0.6198 -0.38802,1.50261 -0.39844,2.64844 0.33854,-0.51562 0.7526,-0.89843 1.24219,-1.14844 0.48958,-0.24999 1.0026,-0.37499 1.53906,-0.375 0.9375,1e-5 1.73437,0.34636 2.39063,1.03907 0.66145,0.6875 0.99218,1.57813 0.99219,2.67187 -10e-6,0.71875 -0.15626,1.38802 -0.46875,2.00781 -0.3073,0.61459 -0.73178,1.08594 -1.27344,1.41407 -0.54167,0.32812 -1.15626,0.49218 -1.84375,0.49218 -1.17188,0 -2.12761,-0.42968 -2.86719,-1.28906 -0.73958,-0.86458 -1.10938,-2.28645 -1.10937,-4.26562 -1e-5,-2.21354 0.40885,-3.82291 1.22656,-4.82813 0.71354,-0.87499 1.67447,-1.31249 2.88281,-1.3125 0.90104,1e-5 1.63802,0.25262 2.21094,0.75781 0.57812,0.50522 0.92447,1.20314 1.03906,2.09375 m -5.74219,4.9375 c 0,0.48438 0.10156,0.94792 0.30469,1.39063 0.20833,0.44271 0.49739,0.78125 0.86719,1.01562 0.36979,0.22917 0.75781,0.34375 1.16406,0.34375 0.59375,0 1.10416,-0.23958 1.53125,-0.71875 0.42708,-0.47916 0.64062,-1.1302 0.64063,-1.95312 -10e-6,-0.79166 -0.21095,-1.41406 -0.63282,-1.86719 -0.42188,-0.45833 -0.95313,-0.68749 -1.59375,-0.6875 -0.63542,1e-5 -1.17448,0.22917 -1.61718,0.6875 -0.44272,0.45313 -0.66407,1.04948 -0.66407,1.78906"
         id="path3176" />
    </g>
  </g>
  <g
     inkscape:groupmode="layer"
     id="layer2"
     inkscape:label="Top"
     style="display:inline"
     transform="translate(3.5433071,3.5433071)">
    <rect
       transform="translate(-108.40625,-64.5)"
       style="fill:none;stroke:#0000ff;stroke-width:0.35433075;stroke-linecap:butt;stroke-linejoin:miter;stroke-miterlimit:4;stroke-opacity:1;stroke-dasharray:none;stroke-dashoffset:0"
       id="rect2985"
       width="105.94489"
       height="424.84253"
       x="108.57047"
       y="64.662514"
       rx="14.173228"
       ry="14.173228" />
  </g>
</svg>
